<?xml version="1.0" encoding="UTF-8"?>
<svg version="1.1" viewBox="0 0 906 906" width="906" height="906" xmlns="http://www.w3.org/2000/svg">
<path transform="translate(0)" d="m0 0h906v906h-906z" fill="#585757"/>
<path transform="translate(354,152)" d="m0 0h35l20 4 21 7 19 10 10 7 13 10 10 9 9 9 10 13 16 26 1 6-21 5-21 9-15 10-12 11-8 9-10 16-7 14-4 15-1 5v31l4 18 5 15 6 10 4 7 4 4 4 6 8 6 5 5 14 9 9 3v2l10 2 18 4h27l16-5 12-5 9-7 7-7 6-11 2-8 1-1 1-13 10-7 8-9 6-13 1-6v-14l-2-7-5-10-9-10-1-4 8-13 2-5v-18l-5-13-8-12-7-6 3-1 17 4-3-10-1-1v-14l3-9 7-13 6-7 10-6 8-2h9l9 3 9 8 5 9 2 6v12l-5 12-6 9-5 7v3l8 5h6l5-5 6-10 6-9 3-3 8-3h15l8 3 7 6 5 10v17l-5 12-6 7h-2v2l-13 9-10 6-1 6 5 6h7l2-4 12-6h9l10 4 8 7 4 9 1 5v9l-3 10-6 10-8 7-8 5-9 3-16 2-4 4v5l5 6v14l-2 18-6 31-7 25-4 9-4 8h-2l-2 6-8 14-3 6-3 3-6 9h-2l-3 6h-2l-2 4-2 3h-2l-2 4-6 7h-2l-1 3-8 7-3 1-1 3-5 2-1 3-10 7-5 2v2l-10 6-4 3-7 3-12 6h-3v2l-12 5-14 5-32 7-13 1h-47l-27-4-20-6-16-6-25-12-19-11-16-12-10-8-12-11-2-4-4-2-7-7-4-6-4-4v-2h-2l-1-4h-2l-7-11-1-3h-2l-4-8v-2h-2v-3h-2l-5-10-5-13-3-7-8-24-5-20-2-7-1-8v-12l5 2 11 4h15l7-2 8-4 8-7 7-11 4-13v-15l-4-15-10-19-6-9-8-14v-8h2l1-7 1-6v-14l-5-29-3-9-4-2-23 1 1-6 9-17 10-13 7-8 8-7 12-10 22-13 20-8 23-6z" fill="#FBF4CA"/>
<path transform="translate(347,73)" d="m0 0h21l13 5 10 7 8 8 5 7v3l10-4 11-4 5-1h12l12 3 10 5 10 7 6 7 7 14 3 16v12l-4 15v6l14 13 4 6 7 8 12 17 11 23 1 6h9l17 3 15 4 12 5v2l4 1 6 5 8 13 4 11v18l-7 14-3 4 1 4 7 7 5 8 3 7 1 5v14l-2 8-7 14-9 9-7 4-1 13-2 3-2 9-7 10-9 9-10 6-16 6-8 2h-27l-18-4-10-3v-2l-9-2-7-5-9-5-3-3v-2l-4-2-7-6-2-6-4-2-6-10-6-12-5-17-2-11v-31l4-17 5-11 7-13 8-11 9-10 11-10 18-11 17-7 16-4h5l-4-9-12-20-9-12-11-12-7-7-13-10-12-8-16-9-15-6-19-5-11-2h-35l-18 4-16 5-17 7-23 14-15 14h-2l-2 4-9 10-9 14-6 13-1 3 2-1 21-1 5 3 3 9 5 29v14l-3 13h-2l1 8 12 21 6 9 7 15 3 12v15l-4 13-7 11-10 9-8 4-6 1h-15l-13-5-3-2 2 20 9 34 8 23 5 10 4 10 1 4h2v3h2l4 7v3h2l8 12v2h2l1 4h2l2 4 5 5 9 10 13 13 14 11 12 9 14 9 27 14 20 8 19 6 23 4 8 1h47l19-2 29-7 14-5 7-3h2v-2l9-4 9-5 7-3 9-6h2v-2l15-10 4-4 10-8 5-6 5-5 5-6 5-5 1-2h2l3-6h2l2-4 5-8h2l2-6 11-20h2l2-6 4-9 7-24 4-18 4-22 1-12v-14l-5-6 1-7 4-3 16-2 11-4 11-8 6-8 4-9 1-5v-9l-3-11-4-5-9-6-6-2h-9l-12 6-4 4h-5l-6-7 1-6 9-6 11-7 4-2v-2l5-5 5-8 2-6v-17l-5-10-8-6-6-2h-15l-9 4-4 5-8 14-4 5-3 2h-6l-9-6 1-5 8-10 6-13 1-3v-12l-4-10-6-8-7-5-7-2h-9l-10 3-9 6-7 10-5 11-2 6v14l3 9v2l-14-2-3-1v-2l-7-2v-3l5-19 5-14 6-12 11-13 10-7 10-4 13-1 14 3 10 5 10 9 6 10 4 11 1 9 6-2 9-1 13 1 12 4 8 5 8 10 6 12 1 3v19l-4 11-7 12 4 2 10 6 5 5 7 10 4 10 1 5v14l-4 13-4 8-6 8-7 7-10 6-8 3-9 1v16l-3 28-5 23-6 20-8 18-13 25-7 11-10 14-10 11-7 8-10 11-8 7-12 10h-2v2l-10 7-16 10-17 9-26 11-14 5v66h12l10 3 10 8 8 13 2 6-1 11-4 8-7 7-6 4-8 2h-127l-3-1-67 1-10-1-8-5-6-7-5-8-1-8 2-10 5-9 7-7 10-6 10-3 20-1h19v-64l-10-2-16-6-11-5-12-6-13-8-15-9-13-10-16-13-23-23-8-10-10-14-10-15-13-24-6-15-8-22-4-20-4-24-1-10-11-8-7-8-7-14-3-15 2-12 11-23 8-14-1-4-22-12-12-7-4-5v-6l6-10 12-11 21-14 13-6 5-14 4-9 2-5 7-10-1-4-6-12-4-14-1-7v-18l4-14 6-11 11-12 10-7 11-4 5-1h20l11 3h4l5-10 6-8 11-10 11-5z" fill="#13232D"/>
<path transform="translate(518,270)" d="m0 0h24l22 4 10 4 8 5 7 8 3 9-1 10-6 10-5 4-9 3-12 2-2 1v6l5 5 20 5 10 7 4 6 2 5v13l-4 10-4 5-8 5-9 2-16 1-1 1v7l4 5 10 4v10l-5 10-7 6-13 6-11 3h-22l-14-3-15-5-12-7-10-9-10-13-9-17-5-18-2-12v-13l2-15 4-13 7-13 9-11 12-12 14-9 10-5 20-6z" fill="#FBF4CA"/>
<path transform="translate(700,456)" d="m0 0 1 2-4 18-7 24-7 15h-2l-2 6-8 14-3 6-3 3-6 9h-2l-3 6h-2l-2 4-2 3h-2l-2 4-6 7h-2l-1 3-8 7-3 1-1 3-5 2-1 3-10 7-5 2v2l-10 6-4 3-7 3-12 6h-3v2l-12 5-14 5-32 7-13 1h-47l-27-4-20-6-16-6-25-12-19-11-16-12-10-8-12-11-2-4-4-2-7-7-4-6-4-4v-2h-2l-1-4h-2l-7-11-1-3h-2l-4-8v-2h-2v-3h-2l-5-10-5-13-3-7-6-17 1-7h2l4 9 8 12 14 19 12 13 9 9 10 8 13 12 15 11 11 7 9 6 19 10 17 9 30 9 25 5 17 2h28l26-3 24-5 30-10 18-8 19-12 13-9h2v-2l16-12 11-11 11-9 10-11 8-10 12-16 10-18 4-7 1-6z" fill="#EECC8A"/>
<path transform="translate(350,89)" d="m0 0h10l7 2 10 5 5 4 2 5h2l7 21v3h7l11-9 13-7h20l10 3 8 5 5 7 4 12 1 16-3 10-14-8-10-6-11-5-21-7-17-3-7-1h-35l-21 4-27 9-21 11-12 8-13 10-10 11-3 3-4-6-3-12v-23l4-11 8-10 10-6 10-3h14l9 3 9 7 6 4h3l4-16 7-14 5-6 11-7z" fill="#FC4559"/>
<path transform="translate(613,388)" d="m0 0 1 2h2v23l-3 16-6 17-8 13-10 13-14 11-11 7-18 7-10 2-16 1-19-2-13-4-15-6-14-10-11-11-9-13-5-9-4-13 4-8 7 6 5 8 8 6 5 5 14 9 9 3v2l10 2 18 4h27l16-5 12-5 9-7 7-7 6-11 2-8 1-1 1-13 10-7 8-9z" fill="#E2C593"/>
<path transform="translate(519,657)" d="m0 0h3l1 3 1 75 26 1 8 3 5 6 2 5-1 7-4 5-3 2h-121l-6-2-2-4v-10l7-8 8-4 7-1h49l1-74 1-1 14-2z" fill="#F4AB4E"/>
<path transform="translate(354,152)" d="m0 0h35l20 4 21 7 19 10 10 7 13 10 10 9 9 9 10 13 16 26 1 6-9-1-2-4-4-2-9-10-8-11-2-4h-2l-3-4v-2l-4-2-5-5-1-3-5-2v-2l-6-3v-2l-4-2-11-7-10-6-17-6-15-5-15-2h-26l-16 3-12 3-4 2-7 1-12 7-9 5-15 11-8 7-4 2-2 5-7 8-3 3-2 5h-2l-1 4h-2l-1 4-3 2-14 1 1-6 9-17 10-13 7-8 8-7 12-10 22-13 20-8 23-6z" fill="#F9F8E4"/>
<path transform="translate(254,333)" d="m0 0 4 2 6 7 10 18 4 13v16l-5 10-7 6-4 2h-14l-9-5-7-10-2-6v-17l4-15 6-12 3-4 10-4z" fill="#FD4559"/>
<path transform="translate(242,257)" d="m0 0h7l2 12 2 7 1 14-4 27-5-1-25-9-24-11-9-6 2-5 14-11 16-10 13-5z" fill="#F6AC4C"/>
<path transform="translate(348,224)" d="m0 0h13l8 3 7 6 4 6 2 7v10l-5 10-5 6-12 6h-12l-10-5-7-8-3-7v-15l4-8 9-8z" fill="#14242D"/>
<path transform="translate(241,465)" d="m0 0h2l4 9 8 12 14 19 12 13 9 9 10 8 13 12 15 11 10 6v2l-9-3-5-4-7-3-5-5-6-5v-2l-6 1v5l4 2v2l-5 1-3-3-1-2-4-1-1-2v3l3 1 2 7 1 5h2l3 6 6 4 6 8 6 5 5 3 5 5v2l-4-2-10-8-12-11-2-4-4-2-7-7-4-6-4-4v-2h-2l-1-4h-2l-7-11-1-3h-2l-4-8v-2h-2v-3h-2l-5-10-5-13-3-7-6-17z" fill="#E2C391"/>
<path transform="translate(366,735)" d="m0 0h49l-2 5-3 8v11l1 4-28 1h-18l-9-1-5-4v-3h-2v-8l6-8 7-4z" fill="#F5AA4D"/>
<path transform="translate(420,658)" d="m0 0 23 3v57l-13 5-5 4h-3l-2-15z" fill="#F4A84E"/>
<path transform="translate(294,392)" d="m0 0h1l-1 10v11l-3 11-5 8-8 7-7 5-11 4h-10l-10-2-5-2-2 1-2-7-1-8v-12l5 2 11 4h15l7-2 8-4 8-7 7-11z" fill="#E1C392"/>
<path transform="translate(462,661)" d="m0 0 21 1v56h-24l1-14 1-42z" fill="#575657"/>
<path transform="translate(518,270)" d="m0 0h24l7 1 1 2-9 3-3 3-3 4-9 2-17 2-13 5-10 4-8 4-5 2-7 5h-2v2h-2l-2 5-5-1-1-7 15-15 14-9 10-5 20-6z" fill="#F8F8E3"/>
<path transform="translate(449,410)" d="m0 0 4 2 7 9 3 3 6 3 9 5 16 6 9 2h40l9-2 6-3h3l1-2 3 4-7 6-13 6-11 3h-22l-14-3-15-5-12-7-10-9-10-13z" fill="#EDDFBA"/>
<path transform="translate(584,446)" d="m0 0h3l-2 6-3 1-1 5-2 2-6 2-3 5-3 3-6 2v-2l-6 2v1l5 1-1 4h-8l-7 4-1 3-7 2h-23l-2-1-1-4 1-4-4-2-1-4 29-1 12-3 3-3 15-6 9-7 5-4-2 4-6 6 9-6 3-5z" fill="#EDC989"/>
<path transform="translate(348,295)" d="m0 0h12l6 4 4 5 1 2v8l-4 7-7 4h-11l-7-4-6-7v-8l4-6z" fill="#FD4559"/>
<path transform="translate(700,456)" d="m0 0 1 2-4 18-7 24-7 15h-2l-2 4-2-1v-2h-2v-2h-4v2h3l-1 5-4-1-5-1-1 5-6 2-3 7-8 2-2 4h-2v2h-2v2l-4 2-1 2h-3v2l-7 4-3 3-6 5h-2l-1 3-9 5-11 7-3-1 21-14 5-2v-2l16-12 11-11 11-9 10-11 8-10 12-16 10-18 4-7 1-6z" fill="#E1C493"/>
<path transform="translate(295,477)" d="m0 0h7l3 1h7l1-1h7l3 2 1 3v9l-6 9-6 4h-9l-8-5-5-8-1-7 3-5z" fill="#2B3233"/>
<path transform="translate(242,257)" d="m0 0h7l2 15-2-2v-3l-18 7-8 4-8 3-16 8-12 1 2-5 14-11 16-10 13-5z" fill="#F9EFC6"/>
<path transform="translate(219,327)" d="m0 0 6 1-1 6-8 18-4 16v16l4 13v2l-5-2-6-7-3-8-1-5v-11l3-12 8-17z" fill="#FC4659"/>
<path transform="translate(367,467)" d="m0 0 5 1 4 4-1 9-6 8-8 3-10-1-6-4-4-7 1-6 2-3h6l2 1h8z" fill="#19262E"/>
<path transform="translate(432,535)" d="m0 0h5l3 3v9l-4 6-7 5h-10l-6-3-4-5-2-4v-6l2-4 9 1 7 1z" fill="#2D3334"/>
<path transform="translate(277,417)" d="m0 0 2 1-2 2 6 1 3 3-3 3-3 1v-2l-12 2-3 2-9 1-4 1v6l2 1 8 1-2 4h-6v-2l-6 1-11-1-3-7h-2l-1-16 15 5h15l7-2 8-4z" fill="#EDCC8B"/>
<path transform="translate(350,89)" d="m0 0h10l7 2 10 5 5 4 2 5h2l2 5-1 4-2-2-4-2-1-7-6-1v2l-5-1-6-2h-14l-14 4-7-1-4 3 2-4 5-5 9-6z" fill="#CFA67E"/>
<path transform="translate(443,736)" d="m0 0h56l-4 3-15 1-10 4-14 1-11 4-14 7-1 4-2-2v-10l7-8z" fill="#EFCD8A"/>
<path transform="translate(272,121)" d="m0 0h14l9 3 7 5-2 2-5-3-2 3-17 1-10 4-9 8-3 5-4-1v-8l2-6h2l2-5 4-4 7-3z" fill="#CEA87F"/>
<path transform="translate(424,113)" d="m0 0h20l10 3 8 5 5 7v5l-6-1-5-1-9-5-7-2h-13l-9 1-1-5h-3v-2z" fill="#CBA87F"/>
<path transform="translate(366,735)" d="m0 0h31v1l-10 1-2 5-9 3-10 4-8 5-6 1-1 3v-2h-2v-8l6-8 7-4z" fill="#ECC889"/>
<path transform="translate(430,112)" d="m0 0h15 4l6 2 8 6 5 4 4 9 2 7v21l-2 5-7 1-2-2-5-2-9-6-16-8-18-6v-2l-2-1 10 2 18 7 13 7 14 9 3-9-1-16-5-14-3-3v-2l-10-5-8-2-14-1z" fill="#352D33"/>
<path transform="translate(522,736)" d="m0 0h28l8 3 5 6 1 5-3-2-13-1h-6l-16-5z" fill="#EEC687"/>
<path transform="translate(443,662)" d="m0 0 2 4 3 32 1 5 4 5 6 1 1-2-1 11h-16z" fill="#2C3536"/>
<path transform="translate(277,417)" d="m0 0 2 1-2 2 6 1 3 3-3 3-3 1v-2l-12 2-3 2-9 1-4 1-1 5h-3-3l-4 1v-4h2l-1-4 4-5 21-2 9-5z" fill="#EBC68A"/>
<path transform="translate(651,475)" d="m0 0 8 1 3 4-1 7-4 4-3 1h-8l-1-5h-3l1-7 5-4z" fill="#E1C593"/>
<path transform="translate(563,757)" d="m0 0 2 2-4 5-5 2h-120l-3-2 124-1 5-4z" fill="#211F26"/>
<path transform="translate(588,385)" d="m0 0 6 1-4 6-8 5-9 2-17 1 1-4h3l1-3 13-3 10-3z" fill="#EEDDB8"/>
<path transform="translate(517,655)" d="m0 0h5l2 2 1 4 1 70 2 2 16 1 5 1v1h-25l-1-1-1-78-10 2 2-1v-2z" fill="#202127"/>
<path transform="translate(443,736)" d="m0 0h13l-6 7-14 9-7 2v-8l9-8z" fill="#FAF2C9"/>
<path transform="translate(608,626)" d="m0 0 3 1h11l1 11v7l-2-2-10-1-3-3-1-12z" fill="#4B4D4E"/>
<path transform="translate(745,372)" d="m0 0 2 3-2 4-7 6-8 5-8 2-4-2-5-1 1-3 20-7 5-3 3-1z" fill="#F0E5BE"/>
<path transform="translate(573,398)" d="m0 0 4 1h-3v2h-2l-5 10 3 4v2l-10-3-5-6v-7l2-2z" fill="#313234"/>
<path transform="translate(402,661)" d="m0 0h1v55h-1v-7l-4-1-2-5 1-2 4-1v-12l-10-1v-2l11-1v-12h-10l-1-3 5-5z" fill="#4B4D4E"/>
<path transform="translate(599,213)" d="m0 0h2l-2 5-7 17-5 20-3 5-4-1 2-4 2-5 2-1 2-12 1-1-1-4v-13h6l4-4z" fill="#4B4D4E"/>
<path transform="translate(354,135)" d="m0 0h35l20 3 4 2-6 1-23-3h-26l-11 2-9-1 4-2z" fill="#232128"/>
<path transform="translate(352,741)" d="m0 0 1 2-3 5-1 8h2l3 5 2 1 9 1h47l-2 2-19 1h-29l-10-3-4-6-1-9 4-6z" fill="#2B292F"/>
<path transform="translate(249,262)" d="m0 0h1l1 10-2-2v-3l-18 7-8 4-8 3-16 8-12 1 2-5 7-6 2 1-6 6 12-3 11-5 19-8 12-5 3-1z" fill="#F0CE93"/>
<path transform="translate(587,577)" d="m0 0v3l-12 7-20 7-7 3-13 4-22 4h-9v-1l26-5 20-6 26-10z" fill="#E3C794"/>
<path transform="translate(379,96)" d="m0 0 7 6 3 3 5 15v8l7-3 10-8 8-4 4 2-12 6-11 9-7-1-7-21v-3h-2l-2-5-4-2z" fill="#302F34"/>
<path transform="translate(632,178)" d="m0 0h3l1 3v7l3 1-10 2-10 5-2-1 4-3 2-11z" fill="#4B4D4E"/>
<path transform="translate(413,140)" d="m0 0 10 2 18 7 13 7 14 9 2-1v3h-5l-2-2-5-2-9-6-16-8-18-6v-2z" fill="#333136"/>
<path transform="translate(340,567)" d="m0 0 12 6 22 12 13 6 26 8v1l-9-1-10-3-16-6-11-5-5-3-6-4-5-2-9-5z" fill="#E3C794"/>
<path transform="translate(426,408)" d="m0 0 2 3 6 10-1 7-2 4 1 8-2-2-5-13-1-8v-8z" fill="#EFE3BC"/>
<path transform="translate(608,263)" d="m0 0 2 2 1 4-5 1 2 4-4 7-4-4-5-7-6-5 3-1 17 4z" fill="#ECD9B3"/>
<path transform="translate(232,392)" d="m0 0 8 10 8 4h14l8-5 5-5-1 4-8 8-5 2h-10l-9-3-7-4-4-7z" fill="#333136"/>
<path transform="translate(498,683)" d="m0 0h1v52h-54v-1l10-1h41l1-2z" fill="#1E1B23"/>
<path transform="translate(269,119)" d="m0 0h17l9 3 6 4 7 6 5-1 2-1-1 5-4 1-16-12-8-2h-14l-10 3-6 2v-2l5-3z" fill="#2B2B30"/>
<path transform="translate(608,734)" d="m0 0h7l-1 3h-3v4h6l2-4h2l2 12-12-1-3-2z" fill="#4B4D4E"/>
<path transform="translate(558,663)" d="m0 0h3v2l4-1-1 5 2 2v5l9-2 4-1-1 3-7 3-1 5h-5v-12l-9-1-1-5z" fill="#4B4D4E"/>
<path transform="translate(469,105)" d="m0 0 13 1 2 13 3 1 4 10 1 2-5 1-6-14-6-8-6-5z" fill="#4B4D4E"/>
<path transform="translate(292,155)" d="m0 0 2 1-2 3-4 2-1 2-10 5-6 5-3 1-4 4-6 5-5 5-4 3 2-4 4-5h2l2-4 11-9 15-10z" fill="#2C2B30"/>
<path transform="translate(541,667)" d="m0 0h1l1 6h6v13l-7-1v25h-1z" fill="#4B4D4E"/>
<path transform="translate(364,733)" d="m0 0h49l3 1-1 2h-49l-8 3-3 1 2-4z" fill="#543E42"/>
<path transform="translate(621,612)" d="m0 0 2 1v2h12l1 1v6h-2l1 3-3 1-9-4-2-6 1-2-2-1z" fill="#4B4D4E"/>
<path transform="translate(188,312)" d="m0 0 4 1v2l2 1-2 5-2 1h-10l-1-6 1-2z" fill="#4B4D4E"/>
<path transform="translate(609,655)" d="m0 0 5 1v7l-2 2 9-1 1-4v8l-2 2-10-1-2-1-1-10z" fill="#4B4D4E"/>
<path transform="translate(643,534)" d="m0 0m-1 1m-1 1m-1 1m-1 1m-1 1m-1 1m-1 1m-1 1m-1 1m-1 1m-1 1m-1 1 1 3-7 4-3 3-6 5h-2l-1 3-9 5-11 7-3-1 21-14 5-2v-2z" fill="#E3C793"/>
<path transform="translate(650,187)" d="m0 0h8l7 2 2 3 7 1 4 2-2 2-2 1-1 2-11-7-10-3-7-1v-1z" fill="#4B4D4E"/>
<path transform="translate(517,655)" d="m0 0h5l2 2 1 4-1 62h-1l-1-66-10 2 2-1v-2z" fill="#313739"/>
<path transform="translate(502,161)" d="m0 0 4 1v4l-3 1 3 5-2 3-9-1-1-7 1-1h5z" fill="#4B4D4E"/>
<path transform="translate(339,90)" d="m0 0h6l-3 2-10 6-5 5-4 5-5 11-2 9-2-3 2-9 4-9 7-8 7-7z" fill="#2A2A2F"/>
<path transform="translate(177,549)" d="m0 0h2l1 9-2 1-12-1v-4h2v-2z" fill="#4B4D4E"/>
<path transform="translate(564,327)" d="m0 0h5l-3 3h-2v2l-2 2-1 3 2 1 5 3v2l-6-1-5-4-1-2v-6l3-2z" fill="#3E393B"/>
<path transform="translate(198,297)" d="m0 0 6 2 24 10 9 3-1 2-11-3-11-4-15-7z" fill="#2B292F"/>
<path transform="translate(573,208)" d="m0 0h5l1 2v10l-6-1v-2l-3-1v-7z" fill="#4B4D4E"/>
<path transform="translate(253,272)" d="m0 0 2 4 1 3v16l-2 9-2 5h-1l1-11 1-14-1-11z" fill="#2B2C30"/>
<path transform="translate(471,137)" d="m0 0h2l1 3v21l-2 5h-2l1-16z" fill="#2B2B30"/>
<path transform="translate(274,357)" d="m0 0 2 3 4 11 1 9-1 11h-2l-1-18-4-13z" fill="#302E33"/>
<path transform="translate(407,69)" d="m0 0 7 1 1 5 2 1h-17l2-4z" fill="#4B4D4E"/>
<path transform="translate(608,686)" d="m0 0h6l-2 1-1 6 7-1 3-1 1-3-1 7-2 2h-7l-4-3v-5z" fill="#4B4D4E"/>
<path transform="translate(216,349)" d="m0 0 2 4-4 16-1 1v13l2 11-2-2-2-8v-16z" fill="#414143"/>
<path transform="translate(529,138)" d="m0 0h7v9h-7l-2-3 1-5z" fill="#4B4D4E"/>
<path transform="translate(249,262)" d="m0 0h1l1 10-2-2v-3l-18 7-8 4-8 2 3-3 18-8 10-4 3-1z" fill="#EFCD8A"/>
<path transform="translate(616,709)" d="m0 0 1 2h3v9l-5 1-2-1v-10z" fill="#4B4D4E"/>
<path transform="translate(609,788)" d="m0 0 6 3v-2h6l-1 3h-3v6l-9 1 2-1v-5z" fill="#4B4D4E"/>
<path transform="translate(544,595)" d="m0 0m-3 1h3v2l-9 3-22 4h-9v-1l26-5z" fill="#E3C794"/>
<path transform="translate(257,332)" d="m0 0 4 2 7 10 4 7-1 3-4-5-7-11-4-5z" fill="#302F34"/>
<path transform="translate(485,173)" d="m0 0 2 2h7v11l-5-3-4-4z" fill="#4B4D4E"/>
<path transform="translate(235,451)" d="m0 0 4 1 4 10v3h-2v3h-2z" fill="#EBDEB6"/>
<path transform="translate(349,87)" d="m0 0h14l13 6 3 4-5-2-8-4-18-2z" fill="#212127"/>
<path transform="translate(189,508)" d="m0 0 4 1v6l-1 1h-8v-3l-2-1z" fill="#4B4D4E"/>
<path transform="translate(367,467)" d="m0 0 5 1 2 1-1 2-5-1-1 3-4 3h-6l-2-3 7-2z" fill="#303638"/>
<path transform="translate(325,615)" d="m0 0 11 6 2 2-3 4-5-1v-3l-4-2z" fill="#4B4D4E"/>
<path transform="translate(377,587)" d="m0 0 13 5 23 7v1l-9-1-10-3-16-6z" fill="#E0C391"/>
<path transform="translate(248,132)" d="m0 0 1 3-6 9-2 7-1 20h-1v-24l6-12z" fill="#38373B"/>
<path transform="translate(180,558)" d="m0 0h12l-1 4-2 2h-6l-3-3z" fill="#4B4D4E"/>
<path transform="translate(347,486)" d="m0 0 8 1 10 3-4 2-10-1-5-3z" fill="#3D3538"/>
<path transform="translate(438,738)" d="m0 0 6 2-3 1v2h-2l-1 3-7 2h-2l2-4z" fill="#EBC994"/>
<path transform="translate(409,635)" d="m0 0 11 2 4 2 12 2v2l-9-1-17-4-3-2z" fill="#E1AD87"/>
<path transform="translate(223,606)" d="m0 0 5 2 5 4-4 1-17 1-4-2h15z" fill="#4B4D4E"/>
<path transform="translate(583,317)" d="m0 0 3 2-6 5-9 3h-5l-1-3 9-1 6-1 1-4z" fill="#ECDEB6"/>
<path transform="translate(392,780)" d="m0 0h24v3l-8 1-3-1-2 2-2-3-9-1z" fill="#4B4D4E"/>
<path transform="translate(698,321)" d="m0 0 2 4 1 5 7 1 1 3-7 1-6-7 1-6z" fill="#3C3A3C"/>
<path transform="translate(172,301)" d="m0 0 15 8 2 2-6 2-5-2v-3l-5-4-2-2z" fill="#4D4E4F"/>
<path transform="translate(101,250)" d="m0 0 3 1-1 3 2 2 3-1v5l-1 1h-5l-3-5v-5z" fill="#4B4D4E"/>
<path transform="translate(320,656)" d="m0 0h5l1 3v11l6 1v2l-3 1-3-1-1-2-5-2 3-1v-2h2l-2-6-3-2z" fill="#4B4D4E"/>
<path transform="translate(274,396)" d="m0 0 1 3-9 9-5 2h-10v-2l9-1 9-5z" fill="#2B2A30"/>
<path transform="translate(207,492)" d="m0 0h1v8h-8v-2h-2v-2z" fill="#4B4D4E"/>
<path transform="translate(660,646)" d="m0 0 4 1v8l4 1-2 5-2-1v-4h-2l-1-3-4-3v-2z" fill="#4B4D4E"/>
<path transform="translate(373,642)" d="m0 0 9 3-3 6-6-1z" fill="#4B4D4E"/>
<path transform="translate(365,466)" d="m0 0 3 1-8 6h-8l-4-4h12z" fill="#F5EAD1"/>
<path transform="translate(242,430)" d="m0 0h8v8l-4-2-5 2v-4h2z" fill="#E3C793"/>
<path transform="translate(269,119)" d="m0 0h16v1l-11 1-18 6v-2l5-3z" fill="#27262C"/>
<path transform="translate(268,431)" d="m0 0h8l-1 4-4 4h-3v-2l-2-1 2-1-1-2z" fill="#EECC8A"/>
<path transform="translate(308,147)" d="m0 0 3 1-4 4-11 5-2-1v-2z" fill="#312F34"/>
<path transform="translate(311,582)" d="m0 0 5 1 3 3 5 3 5 5v2l-4-2-10-8z" fill="#E4AB86"/>
<path transform="translate(642,480)" d="m0 0 1 2-1 5h3l1 5 11-1-2 2h-11l-4-4 1-8z" fill="#F0E6C0"/>
<path transform="translate(538,466)" d="m0 0h9l-2 2-8 2h-27v-1h26v-2z" fill="#4E373C"/>
<path transform="translate(591,631)" d="m0 0h2v5h-6l-4 6-2-3-3-2z" fill="#4C4D4E"/>
<path transform="translate(274,521)" d="m0 0 4 1 1 3 4 1 1 4-5 1-5-7z" fill="#EECC8A"/>
<path transform="translate(485,463)" d="m0 0h10l2 2 9 1v2l3 1-10-1-14-4z" fill="#55343B"/>
<path transform="translate(524,206)" d="m0 0 4 2 1 5h7l1 5-2 1v-3l-9-1-1-2 1-2-3-1z" fill="#4B4D4E"/>
<path transform="translate(264,174)" d="m0 0 2 1-6 7-8 7-3 2 2-4 4-5h2l2-4z" fill="#3B393D"/>
<path transform="translate(352,741)" d="m0 0 1 2-3 5-1 8h2l3 5 2 2-5-1-4-8v-6l4-6z" fill="#2A262C"/>
<path transform="translate(301,474)" d="m0 0 6 1h9l-4 4h-7l-2-2-8-1v-1z" fill="#F7F6DE"/>
<path transform="translate(766,296)" d="m0 0h4l2 4-1 4-5-1-1-3h-2l1-2z" fill="#4B4D4E"/>
<path transform="translate(413,140)" d="m0 0 10 2 11 4-1 2-7-1-7-3-4-1v-2z" fill="#302E33"/>
<path transform="translate(451,791)" d="m0 0 5 1 2 2-5 1 1 5h-5l-1-7z" fill="#4B4D4E"/>
<path transform="translate(566,587)" d="m0 0m-2 1h2v2l-18 7-4-1 8-4z" fill="#DFC391"/>
<path transform="translate(218,470)" d="m0 0h2l5 13-1 3-1-2-5-1v-2h2l1-4-3 1v-5z" fill="#4B4D4E"/>
<path transform="translate(195,404)" d="m0 0 8 6 6 4-2 2-5-3h-3v-2h-2v-2h-3z" fill="#4B4D4E"/>
<path transform="translate(230,200)" d="m0 0 4 5-1 2h-10l2-6z" fill="#4B4D4E"/>
<path transform="translate(292,655)" d="m0 0 5 1v4l-7 2-4 2-1-4 6-3z" fill="#4B4D4E"/>
<path transform="translate(392,136)" d="m0 0 17 2 4 2-6 1-13-2v-2z" fill="#2E2C31"/>
<path transform="translate(216,775)" d="m0 0 1 3-1 2 4-1-1 4-1 2h-3v-5l-5 1v-3z" fill="#4B4D4E"/>
<path transform="translate(551,686)" d="m0 0 3 2v2h3l2 3 3 2h2v2h-9v-3l-4-3z" fill="#4B4D4E"/>
<path transform="translate(674,579)" d="m0 0h4v12l-3-1-3-7v-3z" fill="#4B4D4E"/>
<path transform="translate(258,493)" d="m0 0 3 1 9 12-1 3-5-5-4-5z" fill="#D4B888"/>
<path transform="translate(639,656)" d="m0 0 4 1-1 14-5-1 1-2 1-3-1-6h2z" fill="#4B4D4E"/>
<path transform="translate(326,141)" d="m0 0 3 1-1 2-12 4-5-1 3-2z" fill="#2D2B31"/>
<path transform="translate(379,96)" d="m0 0 7 6 3 3 1 6-2 2-2-5v-3h-2l-2-5-4-2z" fill="#2B2D31"/>
<path transform="translate(682,642)" d="m0 0h6l-2 4-3 2-1 3-3-1v-7l2 1z" fill="#4B4D4E"/>
<path transform="translate(443,736)" d="m0 0h13l-6 7-5 2 1-4h3v-3h-9z" fill="#EFD7B3"/>
<path transform="translate(431,533)" d="m0 0h7l4 3v8l-2-4-3-4h-9z" fill="#F7F5DB"/>
<path transform="translate(449,313)" d="m0 0 2 3-2 6h-2v2l-4 2 3-9z" fill="#F4DDC5"/>
<path transform="translate(533,834)" d="m0 0 1 2-5 1-1 4 4 2v1h-6l-1-3 1-5z" fill="#4B4D4E"/>
<path transform="translate(522,639)" d="m0 0h5l-4 2-15 3h-6l3-2 8-2z" fill="#D0A481"/>
<path transform="translate(329,596)" d="m0 0 4 1 11 7 2 4-5-2-12-9z" fill="#E4A985"/>
<path transform="translate(235,350)" d="m0 0 1 2-4 12-1 5-2-4 2-9 3-5z" fill="#312F34"/>
<path transform="translate(253,290)" d="m0 0h3l-1 10-3 9h-1l1-11z" fill="#353438"/>
<path transform="translate(615,383)" d="m0 0 2 2v27h-1v-22h-2z" fill="#EEDEB8"/>
<path transform="translate(200,371)" d="m0 0h1l3 15 1 4-3-1-3-10z" fill="#313035"/>
<path transform="translate(490,147)" d="m0 0 4 2v8l-2 2-2-1z" fill="#4B4D4E"/>
<path transform="translate(418,78)" d="m0 0 5 4 2-1 2-3 1 4-3 2-8-1v2h-2l1-6z" fill="#4B4D4E"/>
<path transform="translate(321,107)" d="m0 0 1 3-5 12-1 6-2-3 2-9 4-8z" fill="#302F34"/>
<path transform="translate(419,113)" d="m0 0 4 2-12 6-3 1 2-4 6-4z" fill="#2B292F"/>
<path transform="translate(636,577)" d="m0 0h2l-1 3-2-1zm-3 3h2l-2 4-8 7-2-1 5-5z" fill="#2E2F34"/>
<path transform="translate(665,542)" d="m0 0h1v5l-5 5-2 4-5 3 3-6h2l2-4z" fill="#372C32"/>
<path transform="translate(249,262)" d="m0 0h1l1 10-2-2v-3l-11 4-2-1 11-6h2z" fill="#ECCA89"/>
<path transform="translate(548,196)" d="m0 0 4 1-1 4-11 2 3-3z" fill="#4B4D4E"/>
<path transform="translate(557,163)" d="m0 0h5l2 6-4 1-5-5z" fill="#4B4D4E"/>
<path transform="translate(628,776)" d="m0 0h6v4l-6 1-3-3z" fill="#4B4D4E"/>
<path transform="translate(588,686)" d="m0 0 1 4-1 2 3 1-3 1-5-3 1-4z" fill="#4B4D4E"/>
<path transform="translate(257,547)" d="m0 0 4 5 3 5h-5l-3-6z" fill="#4B4D4E"/>
<path transform="translate(212,450)" d="m0 0h4l1 9-6-1v-7z" fill="#4B4D4E"/>
<path transform="translate(204,350)" d="m0 0h2l-4 16-2-2 1-9z" fill="#2F2E33"/>
<path transform="translate(292,155)" d="m0 0 2 1-2 3-4 2-1 2-7 2 2-4z" fill="#2B2A2F"/>
<path transform="translate(186,288)" d="m0 0 12 9-4 1-8-6z" fill="#2D2C31"/>
<path transform="translate(677,627)" d="m0 0 2 4-2 2-5-1v-2l-5-1v-1z" fill="#4B4D4E"/>
<path transform="translate(229,370)" d="m0 0h1l1 16 1 6-3-1-1-6z" fill="#414043"/>
<path transform="translate(706,558)" d="m0 0 3 3 6 1 3 3-1 2-7-3-2 1-1-5-2-1z" fill="#4B4D4E"/>
<path transform="translate(288,534)" d="m0 0 1 2 4-1 2 1v5l-6-1-1-1z" fill="#EFCD8A"/>
<path transform="translate(241,465)" d="m0 0h2l2 9-4 1-1-7z" fill="#E3CA9A"/>
<path transform="translate(658,269)" d="m0 0 3 4v3l2 1v2l-4-2-3-2 1-5z" fill="#483D40"/>
<path transform="translate(348,136)" d="m0 0 4 1-1 2-10 1-3-2z" fill="#2E2C32"/>
<path transform="translate(671,80)" d="m0 0h5v6l-4 2-1-2z" fill="#4B4D4E"/>
<path transform="translate(428,748)" d="m0 0h1l1 5 5-1-1 3-3 1-1 4-2-2z" fill="#E6C288"/>
<path transform="translate(614,736)" d="m0 0 4 1-1 5-6-1v-4z" fill="#595858"/>
<path transform="translate(15,736)" d="m0 0h8l-2 4-6 1z" fill="#4B4D4E"/>
<path transform="translate(633,643)" d="m0 0 2 1v8l-2 1-2-3v-6z" fill="#4B4D4E"/>
<path transform="translate(812,380)" d="m0 0 3 2v4h-2l-1 2-3-3 1-4z" fill="#4B4D4E"/>
<path transform="translate(531,174)" d="m0 0h8l2 3 2-2 1 3-2 1h-6l-3-3z" fill="#4B4D4E"/>
<path transform="translate(364,733)" d="m0 0h5l-3 3-8 3-3 1 2-4z" fill="#312C31"/>
<path transform="translate(341,625)" d="m0 0 5 2 4 3-6 2v-2h-3l-1-3z" fill="#4B4D4E"/>
<path transform="translate(445,435)" d="m0 0 4 2 5 4 2 4-5-2-6-7z" fill="#1F1F25"/>
<path transform="translate(436,425)" d="m0 0h3v2h2l5 9v3l-4-5-1-4-4-2z" fill="#53353C"/>
<path transform="translate(670,223)" d="m0 0 3 1 1 5v14h-1l-2-15z" fill="#5D474A"/>
<path transform="translate(473,155)" d="m0 0h1l-1 9-1 2h-2l1-10z" fill="#2B292F"/>
<path transform="translate(380,626)" d="m0 0 8 1 9 5-2 1-15-6z" fill="#E2A683"/>
<path transform="translate(274,357)" d="m0 0 2 3 2 4v9h-1l-4-13z" fill="#353438"/>
<path transform="translate(772,322)" d="m0 0 2 1-3 3-4 1-2 2-2-5 7-1z" fill="#4B4D4E"/>
<path transform="translate(583,317)" d="m0 0 3 2-6 5-4 1 1-3h3l1-4z" fill="#E9CFAB"/>
<path transform="translate(507,192)" d="m0 0 2 3v6l2 1 1 2-2 2-4-6z" fill="#4B4D4E"/>
<path transform="translate(461,100)" d="m0 0h9l1 3-4 2-6-4z" fill="#4B4D4E"/>
<path transform="translate(624,725)" d="m0 0h2v2h2v3l-2 2h-4l1-6z" fill="#4B4D4E"/>
<path transform="translate(239,894)" d="m0 0h9v3l-4 1v-2h-2v2l-2-1z" fill="#4B4D4E"/>
<path transform="translate(613,767)" d="m0 0 4 1v3l3 1-6 1v-2l-3-1v-2z" fill="#4B4D4E"/>
<path transform="translate(612,598)" d="m0 0 2 1-7 6h-2v2l-5 1 2-1v-2l6-4z" fill="#473339"/>
<path transform="translate(660,546)" d="m0 0h3l-2 4-2 3h-2l-2 4-2-2 6-7z" fill="#DEAD88"/>
<path transform="translate(430,747)" d="m0 0 5 3 1 2-7 2v-6z" fill="#F1E7C1"/>
<path transform="translate(484,467)" d="m0 0 7 1 4 2-8 1-3-2z" fill="#EFCD8A"/>
<path transform="translate(231,419)" d="m0 0h2l1 4v12h-2z" fill="#F0E5BF"/>
<path transform="translate(219,325)" d="m0 0 8 1v5l-3 3 1-6-6-2z" fill="#36373A"/>
<path transform="translate(569,277)" d="m0 0 5 1 7 4-1 2-7-3z" fill="#F5F3DA"/>
</svg>
